<?xml version="1.0" encoding="UTF-8" standalone="no"?>
<svg
   id="Layer_1"
   data-name="Layer 1"
   viewBox="0 0 459.55029 491.19998"
   version="1.1"
   sodipodi:docname="johnshopkinsuniversity.svg"
   width="459.55029"
   height="491.19998"
   inkscape:version="1.4 (86a8ad7, 2024-10-11)"
   xmlns:inkscape="http://www.inkscape.org/namespaces/inkscape"
   xmlns:sodipodi="http://sodipodi.sourceforge.net/DTD/sodipodi-0.dtd"
   xmlns="http://www.w3.org/2000/svg"
   xmlns:svg="http://www.w3.org/2000/svg">
  <sodipodi:namedview
     id="namedview12"
     pagecolor="#ffffff"
     bordercolor="#000000"
     borderopacity="0.25"
     inkscape:showpageshadow="2"
     inkscape:pageopacity="0.0"
     inkscape:pagecheckerboard="0"
     inkscape:deskcolor="#d1d1d1"
     inkscape:zoom="1.167"
     inkscape:cx="229.64867"
     inkscape:cy="245.50129"
     inkscape:window-width="2560"
     inkscape:window-height="1369"
     inkscape:window-x="1912"
     inkscape:window-y="-8"
     inkscape:window-maximized="1"
     inkscape:current-layer="Layer_1" />
  <defs
     id="defs1">
    <style
       id="style1">.cls-1,.cls-2{fill:#002d74;}.cls-1{fill-rule:evenodd;}</style>
  </defs>
  <path
     class="cls-1"
     d="m 219.76,145.59997 a 1072.63,1072.63 0 0 0 -212.56,23.14 c 30.68,194.44 152.17,289.12 212.56,322.46 z m -91,39.15 a 77.63,77.63 0 1 0 77.64,77.61 77.7,77.7 0 0 0 -77.64,-77.61 m 3.35,74.27 h 30.15 a 88.08,88.08 0 0 0 -2.34,-17.12 176.07,176.07 0 0 1 -27.84,2.7 z m 26,-23.59 a 90.11,90.11 0 0 0 -7.5,-17.17 145.84,145.84 0 0 1 -18.47,1.64 v 18 a 174,174 0 0 0 26,-2.5 m -11.48,-23.36 a 98.62,98.62 0 0 0 -14.58,-17.06 v 18.19 a 127.08,127.08 0 0 0 14.58,-1.13 m 7.26,-1.16 a 132.8,132.8 0 0 0 17.92,-4.73 70.46,70.46 0 0 0 -32.93,-13.89 104.38,104.38 0 0 1 15,18.62 m -43.15,1.16 a 131.51,131.51 0 0 0 14.68,1.13 v -18.3 a 98.69,98.69 0 0 0 -14.68,17.17 m 7.75,-19.77 a 70.35,70.35 0 0 0 -32.81,13.88 127.05,127.05 0 0 0 17.82,4.7 105.89,105.89 0 0 1 15,-18.58 m -11.6,26 a 91,91 0 0 0 -7.53,17.18 174.23,174.23 0 0 0 26.06,2.51 v -18 a 142.71,142.71 0 0 1 -18.53,-1.66 m -9.38,23.63 a 87.07,87.07 0 0 0 -2.34,17.15 h 30.25 v -14.48 a 174.3,174.3 0 0 1 -27.91,-2.72 m -6.59,-1.28 a 174.31,174.31 0 0 1 -26.5,-8.05 70.11,70.11 0 0 0 -6.46,26.47 h 30.48 a 93.31,93.31 0 0 1 2.48,-18.42 m -33,25.11 a 69.8,69.8 0 0 0 6.46,26.48 174.2,174.2 0 0 1 26.5,-8 93.61,93.61 0 0 1 -2.48,-18.46 z m 39.51,17.15 a 177.45,177.45 0 0 1 27.89,-2.72 v -14.43 H 95.14 a 87.12,87.12 0 0 0 2.36,17.15 m 1.86,6.46 a 89.42,89.42 0 0 0 7.53,17.22 138.36,138.36 0 0 1 18.5,-1.65 v -18 a 172.13,172.13 0 0 0 -26,2.48 m 11.37,23.35 a 99.43,99.43 0 0 0 14.68,17.17 v -18.35 a 144.69,144.69 0 0 0 -14.68,1.18 m -7.24,1.17 a 128.48,128.48 0 0 0 -17.87,4.71 70.35,70.35 0 0 0 32.81,13.88 105.59,105.59 0 0 1 -15,-18.59 m 43.17,-1.22 c -4.81,-0.62 -9.69,-1 -14.56,-1.13 v 18.25 a 97.64,97.64 0 0 0 14.56,-17.12 m -7.73,19.84 a 71.21,71.21 0 0 0 32.94,-13.91 131.37,131.37 0 0 0 -17.92,-4.74 105.29,105.29 0 0 1 -15,18.65 m 11.61,-26 a 93.4,93.4 0 0 0 7.53,-17.21 168.81,168.81 0 0 0 -26,-2.47 v 18 a 140.81,140.81 0 0 1 18.44,1.63 m 9.37,-23.66 a 88.73,88.73 0 0 0 2.34,-17.15 h -30.13 v 14.43 a 176.09,176.09 0 0 1 27.81,2.72 m 6.55,1.3 a 175.88,175.88 0 0 1 26.58,8 69.86,69.86 0 0 0 6.48,-26.48 h -30.6 a 94.34,94.34 0 0 1 -2.46,18.45 m 33.06,-25.14 a 70.13,70.13 0 0 0 -6.48,-26.33 173.7,173.7 0 0 1 -26.58,8 94.14,94.14 0 0 1 2.46,18.42 z m -21.8,-47.87 a 139.7,139.7 0 0 1 -20.28,5.85 95.12,95.12 0 0 1 7.22,17.14 165.49,165.49 0 0 0 25.27,-7.45 72.2,72.2 0 0 0 -12.21,-15.44 m -110.13,15.44 a 168.89,168.89 0 0 0 25.19,7.54 97,97 0 0 1 7.24,-17.17 136.49,136.49 0 0 1 -20.24,-5.82 71.67,71.67 0 0 0 -12.19,15.45 m 12.19,87 a 136,136 0 0 1 20.18,-5.8 97.3,97.3 0 0 1 -7.18,-17.2 170,170 0 0 0 -25.15,7.52 70.64,70.64 0 0 0 12.15,15.48 m 110.11,-15.47 a 170.12,170.12 0 0 0 -25.23,-7.53 97.48,97.48 0 0 1 -7.22,17.19 137.34,137.34 0 0 1 20.28,5.81 71.15,71.15 0 0 0 12.21,-15.47"
     id="path1" />
  <path
     class="cls-2"
     d="m 0,74.449972 v -39.88 a 11.57,11.57 0 0 1 8.76,-11.19 l 0.28,-0.08 a 1057.33,1057.33 0 0 1 441.21,-0.06 l 0.17,0.06 a 11.53,11.53 0 0 1 9.13,11.3 v 39.88 a 616.09,616.09 0 0 1 -4.43,74.349998 1097,1097 0 0 0 -450.66,0.05 615,615 0 0 1 -4.44,-74.399998 m 229.74,-40.81 c -34.69,-12.76 -84.37,-15.53 -114.55,-9.21 l -13.16,10.23 -3.52,0.53 a 3.47,3.47 0 0 0 -2.52,1.75 L 59.3,118.11997 a 2.5,2.5 0 0 0 2.77,3.74 c 55.83,-10.61 115.09,-13.88 167.69,-13.88 v 0 c 52.57,0 111.85,3.27 167.72,13.88 a 2.5,2.5 0 0 0 2.78,-3.74 l -36.7,-81.149998 a 3.47,3.47 0 0 0 -2.51,-1.75 l -3.53,-0.53 -13.16,-10.23 c -30.18,-6.32 -79.87,-3.55 -114.55,9.21 z"
     id="path2" />
  <path
     class="cls-2"
     d="m 226.95,96.879972 c -45.24,-14.82 -97.1,-17.06 -134,-10.09 l 18.25,-51.88 -12.12,9.18 -25.16,65.509998 c 33.57,-5.45 109.39,-11.589998 146.92,-11.069998 a 14,14 0 0 1 6.11,-1.65"
     id="path3" />
  <path
     class="cls-2"
     d="m 232,96.879972 c 45.24,-14.82 97.17,-17.06 134.08,-10.09 l -18.32,-51.88 12.11,9.18 25.19,65.509998 C 351.5,104.14997 275.68,98.009972 238.11,98.529972 a 13.77,13.77 0 0 0 -6.11,-1.65"
     id="path4" />
  <path
     class="cls-2"
     d="m 239.76,291.93997 v 199.24 a 360.35,360.35 0 0 0 42.53,-27.82 v -143.13 z"
     id="path5" />
  <path
     class="cls-2"
     d="m 282.33,146.88997 c -14.15,-0.68 -28.35,-1.16 -42.53,-1.29 v 47.29 l 42.53,28.29 z"
     id="path6" />
  <path
     class="cls-2"
     d="m 367.4,277.82997 v -123.4 c -14.14,-1.8 -28.3,-3.44 -42.52,-4.7 v 99.76 z"
     id="path7" />
  <path
     class="cls-2"
     d="m 324.88,348.59997 v 77.82 a 424.93,424.93 0 0 0 42.52,-49.39 v -0.12 z"
     id="path8" />
  <path
     class="cls-2"
     d="m 367.4,376.98997 c 0,0 0.05,0 0.07,-0.06 l -0.07,-0.05 z"
     id="path9" />
  <path
     class="cls-2"
     d="m 410.03,306.19997 c 18.78,-39 34,-84.49 42.33,-137.51 q -21.12,-4.48 -42.43,-8 v 145.43 z"
     id="path10" />
  <polygon
     class="cls-2"
     points="595.12,602.96 595.12,503.89 552.57,475.61 552.57,574.65 "
     id="polygon10"
     transform="translate(-270.24,-254.40003)" />
  <path
     class="cls-2"
     d="m 409.93,306.11997 -42.53,-28.28 v 99 l 0.07,0.05 a 445.31,445.31 0 0 0 42.46,-70.52 z"
     id="path11" />
  <path
     class="cls-2"
     d="m 409.93,306.42997 a 0.87,0.87 0 0 1 0.1,-0.24 l -0.1,-0.06 z"
     id="path12" />
</svg>
