<?xml version="1.0" encoding="UTF-8" standalone="no"?>
<!-- Created with Inkscape (http://www.inkscape.org/) -->

<svg
   width="187.85463mm"
   height="109.70706mm"
   viewBox="0 0 187.85463 109.70706"
   version="1.1"
   id="svg1"
   xml:space="preserve"
   inkscape:version="1.4 (86a8ad7, 2024-10-11)"
   sodipodi:docname="northropgrumman.svg"
   xmlns:inkscape="http://www.inkscape.org/namespaces/inkscape"
   xmlns:sodipodi="http://sodipodi.sourceforge.net/DTD/sodipodi-0.dtd"
   xmlns="http://www.w3.org/2000/svg"
   xmlns:svg="http://www.w3.org/2000/svg"><sodipodi:namedview
     id="namedview1"
     pagecolor="#ffffff"
     bordercolor="#000000"
     borderopacity="0.25"
     inkscape:showpageshadow="2"
     inkscape:pageopacity="0.0"
     inkscape:pagecheckerboard="0"
     inkscape:deskcolor="#d1d1d1"
     inkscape:document-units="mm"
     inkscape:zoom="1.4702524"
     inkscape:cx="226.83181"
     inkscape:cy="287.36563"
     inkscape:window-width="2560"
     inkscape:window-height="1369"
     inkscape:window-x="1912"
     inkscape:window-y="-8"
     inkscape:window-maximized="1"
     inkscape:current-layer="layer1" /><defs
     id="defs1" /><g
     inkscape:label="Layer 1"
     inkscape:groupmode="layer"
     id="layer1"
     transform="translate(-12.072368,-77.559683)"><path
       style="fill:#243a8e;stroke:none"
       d="m 12.072368,114.072 v 70.37934 h 18.25625 L 30.329,142.91176 62.608,183.96542 81.128619,184.451 V 114.33676 H 62.607786 L 62.608,154.81801 30.329,114.072 Z"
       id="path13" /><path
       style="fill:#243a8e;stroke:none"
       d="m 163.14945,144.49926 h -36.5125 c -0.001,4.93891 0.004,9.87783 0.001,14.81674 1.4163,-4.9e-4 9.08922,-2e-5 17.19687,-7e-5 -3.12787,15.13541 -24.81586,15.92872 -31.73263,3.43954 -4.78835,-8.64604 -4.05391,-22.71157 2.7898,-30.1095 8.5898,-9.28543 22.62381,-4.43798 28.94283,4.70954 l 14.81667,-7.9375 c -11.06264,-19.79445 -39.3761,-23.62607 -56.08904,-8.60948 -10.302753,9.25703 -14.084095,23.81459 -11.406416,37.18448 1.732396,8.65002 6.414733,16.68295 13.520456,22.00777 12.6176,9.45524 33.58419,9.97951 46.02829,-0.18103 10.58505,-8.64263 12.44433,-22.50824 12.44462,-35.32049"
       id="path12" /><path
       style="fill:#243a8e;stroke:none"
       d="m 126.63695,77.559683 v 18.25625 h 54.76875 v 53.710417 c 6.17377,2.4e-4 12.34753,-9.1e-4 18.5213,-3.5e-4 l -4.6e-4,-71.966317 h -73.28959"
       id="path11" /></g></svg>
