<?xml version="1.0" encoding="UTF-8" standalone="no"?>
<svg
   width="2300.6287"
   height="2273.584"
   viewBox="0 0 177.38399 175.29878"
   version="1.1"
   id="svg44"
   sodipodi:docname="universityofmaryland.svg"
   inkscape:version="1.4 (86a8ad7, 2024-10-11)"
   xmlns:inkscape="http://www.inkscape.org/namespaces/inkscape"
   xmlns:sodipodi="http://sodipodi.sourceforge.net/DTD/sodipodi-0.dtd"
   xmlns="http://www.w3.org/2000/svg"
   xmlns:svg="http://www.w3.org/2000/svg">
  <defs
     id="defs44" />
  <sodipodi:namedview
     id="namedview44"
     pagecolor="#ffffff"
     bordercolor="#000000"
     borderopacity="0.25"
     inkscape:showpageshadow="2"
     inkscape:pageopacity="0.0"
     inkscape:pagecheckerboard="0"
     inkscape:deskcolor="#d1d1d1"
     inkscape:zoom="0.4668"
     inkscape:cx="1148.2434"
     inkscape:cy="1136.461"
     inkscape:window-width="2560"
     inkscape:window-height="1369"
     inkscape:window-x="1912"
     inkscape:window-y="-8"
     inkscape:window-maximized="1"
     inkscape:current-layer="svg44" />
  <g
     fill-rule="evenodd"
     clip-rule="evenodd"
     id="g44"
     transform="translate(-7.687,-8.7292198)">
    <path
       fill="#ffffff"
       fill-opacity="0"
       d="M 0,0 H 192.756 V 192.756 H 0 Z"
       id="path1" />
    <path
       d="m 96.707,157.324 c 34.012,0 61.856,-27.572 61.856,-61.584 0,-34.011 -28.971,-61.341 -61.856,-61.311 -34.012,0.032 -62.041,27.3 -62.041,61.311 0,34.012 28.029,61.584 62.041,61.584 z"
       fill="#ffffff"
       id="path2" />
    <path
       d="m 125.537,56.738 c -7.961,1.216 -18.639,1.921 -29.821,1.912 0.144,-12.235 0.348,-21.077 0.586,-23.747 11.327,1.93 21.624,10.096 29.235,21.835 z"
       fill="#ffffff"
       id="path3" />
    <path
       d="m 138.826,100.709 c -11.527,1.758 -26.98,2.779 -43.163,2.764 -0.019,-16.672 0.061,-32.756 0.208,-45.282 11.171,0.01 21.839,-0.695 29.798,-1.909 7.79,12.016 12.767,27.778 13.157,44.427 z"
       fill="#c23c40"
       id="path4" />
    <path
       d="m 137.814,100.625 c -3.197,-0.502 -5.893,-5.844 -4.48,-11.357 -4.51,3.117 -9.584,-3.289 -8.844,-9.214 0.395,-3.141 2.449,-5.931 6.037,-4.635 -1.459,-5.012 -3.285,-9.755 -5.418,-14.119 -3.186,0.403 -6.676,0.74 -10.381,1 3.291,4.972 0.062,9.597 -4.527,8.861 -3.332,-0.534 -6.438,-4.024 -5.574,-8.183 -2.701,1.875 -8.26,1.134 -8.761,-4.802 10.207,-0.053 19.185,-0.396 29.826,-1.898 v 0.001 c 8.598,14.184 12.291,26.62 13.178,44.351 -0.317,-10e-4 -0.743,0.044 -1.056,-0.005 z M 63.899,142.17 c -6.354,-1.066 -10.577,-2.432 -12.002,-3.908 -1.571,-1.766 -3.626,-4.156 -5.082,-6.02 -3.531,-5.164 -3.597,-5.262 -5.154,-8.232 -2.704,-5.723 -2.757,-5.832 -3.818,-9.012 -1.786,-6.182 -1.82,-6.301 -2.364,-9.662 a 139.2,139.2 0 0 1 -0.783,-9.763 l 0.053,-2.67 c -0.107,2.613 6.202,5.093 17.117,6.925 a 94.21,94.21 0 0 0 -0.036,2.607 c 0.027,16.079 4.605,29.993 12.069,39.735 z"
       fill="#ffffff"
       id="path5" />
    <path
       d="m 96.504,157.32 c -0.288,-0.002 -0.669,-0.004 -0.957,-0.008 -0.567,-0.014 -1.133,-0.037 -1.699,-0.053 -3.717,-0.205 -6.149,-0.561 -9.338,-1.145 -8.023,-1.834 -15.137,-6.793 -20.657,-14.055 5.446,0.912 12.449,1.604 20.59,1.957 3.848,0.168 7.719,0.25 11.535,0.252 0.143,8.25 0.327,13.046 0.526,13.052 z"
       fill="#ffffff"
       id="path6" />
    <path
       d="m 95.976,144.27 a 275.095,275.095 0 0 1 -11.533,-0.252 c -8.131,-0.355 -15.128,-1.043 -20.571,-1.953 -7.396,-9.734 -11.928,-23.6 -11.954,-39.613 -10e-4,-0.701 0.007,-1.4 0.023,-2.098 7.416,1.238 16.945,2.178 28.023,2.658 5.241,0.23 10.514,0.342 15.709,0.344 0.001,0.699 0.003,1.398 0.003,2.102 0.027,16.013 0.138,29.575 0.3,38.812 z"
       fill="#c23c40"
       id="path7" />
    <path
       d="m 95.881,145.119 c -0.53,2.133 -3.521,4.17 -7.755,2.445 1.979,2.611 0.265,4.865 -3.215,4.234 -2.707,-0.49 -5.92,-2.668 -6.17,-4.846 a 151.144,151.144 0 0 1 -9.126,-0.953 c 2.583,3 5.462,5.453 8.575,7.273 0.371,-0.152 0.948,-0.113 2.792,0.531 2.361,0.828 4.562,2.031 6.919,2.869 l -10e-4,0.01 c -1.846,-0.283 -2.084,-0.32 -3.394,-0.57 -4.444,-1.277 -12.716,-3.656 -20.652,-14.053 h -0.002 0.002 c 9.562,1.477 18.871,2.113 32.127,2.197 -0.03,0.262 -0.038,0.609 -0.1,0.863 z"
       fill="#c23c40"
       id="path8" />
    <path
       d="m 63.853,142.061 c -8.515,-12.193 -11.866,-23.869 -11.955,-41.643 4.812,1.588 6.136,8.617 4.899,12.57 4.579,-1.766 10.331,6.145 8.315,11.438 -0.928,2.438 -3.337,3.115 -5.86,1.646 1.362,4.619 3.131,8.842 5.244,12.58 3.236,0.447 6.872,0.83 10.852,1.133 -3.195,-3.936 -0.633,-7.156 3.629,-6.938 3.658,0.188 8.502,3.23 7.465,7.385 3.301,-1.488 8.887,-0.266 9.54,4.049 -4.01,-0.031 -10.069,-0.076 -17.833,-0.611 -4.789,-0.332 -9.511,-1.236 -14.296,-1.609 z"
       fill="#ffffff"
       id="path9" />
    <path
       fill="#c23c40"
       d="m 63.853,142.061 z m 0,0 z m 0,0 c -7.045,-1.273 -10.091,-2.26 -12.074,-3.922 -1.427,-1.613 -3.315,-3.779 -4.648,-5.473 0.244,0.307 0.405,0.51 1.058,1.273 -0.643,-0.807 -3.863,-4.918 -4.099,-6.732 1.751,-0.281 7.393,8.516 7.447,8.605 1.712,0.639 3.941,1.236 6.627,1.781 -2.527,-3.809 -4.645,-8.088 -6.275,-12.754 -3.841,1.939 -8.742,-8.211 -7.188,-12.492 0.317,-0.873 1.334,-2.691 3.938,-0.725 -1.962,-4.518 -1.445,-11.213 3.286,-11.203 0.107,14.968 2.175,27.776 11.928,41.642 z"
       id="path10" />
    <path
       d="m 138.553,111.309 -0.076,-0.113 c 0.27,-2.756 0.406,-5.596 0.4,-8.51 0,-0.68 -0.008,-1.361 -0.025,-2.041 a 0.627,0.627 0 0 0 0.09,-0.014 85.875,85.875 0 0 1 -0.389,10.678 z m -32.504,45.281 -0.037,0.008 c 16.969,-2.637 30.047,-20.645 32.465,-45.402 l 0.076,0.113 c -2.453,24.684 -15.537,42.637 -32.506,45.281 z"
       id="path11" />
    <path
       d="m 126.527,149.57 c -4.189,2.154 -5.062,2.602 -9.547,4.285 -1.318,0.432 -3.084,0.984 -4.42,1.365 8.633,-2.326 16.297,-7.264 22.354,-14.127 -1.287,2.857 -2.17,4.49 -6.684,7.488 a 53.22,53.22 0 0 1 -1.705,0.988 h 0.002 z"
       id="path12" />
    <path
       d="m 128.23,148.582 c 3.713,-2.568 5.283,-4.086 6.686,-7.488 8.873,-10.055 14.297,-24.252 14.271,-40.459 0,-0.68 -0.012,-1.361 -0.031,-2.039 2.803,-0.738 5.057,-1.547 6.645,-2.413 0.021,0.677 0.035,1.356 0.035,2.038 0.033,21.746 -10.986,40.324 -27.606,50.361 z"
       fill="#f6d43c"
       id="path13" />
    <path
       d="m 109.695,132.637 c -4.107,-4.117 -4.107,-4.117 -13.979,-13.469 -0.022,-4.316 -0.037,-8.904 -0.045,-13.711 l -0.002,-2.043 c 5.351,0.006 10.624,-0.102 15.698,-0.312 0.008,0.678 0.012,1.359 0.014,2.041 0.015,10.341 -0.596,19.677 -1.686,27.494 z"
       id="path14" />
    <path
       d="m 99.133,157.266 -0.391,0.018 c -0.852,0.021 -1.24,0.035 -1.596,0.035 l -0.644,0.002 c -0.358,-0.012 -0.668,-15.26 -0.787,-38.152 9.235,8.74 10.2,9.654 13.979,13.469 -2.094,15.016 -5.96,24.428 -10.561,24.628 z"
       fill="#f6d43c"
       id="path15" />
    <path
       d="m 102.055,157.076 c -0.488,0.039 -1.143,0.09 -1.633,0.123 -0.387,0.021 -0.9,0.049 -1.289,0.066 4.598,-0.197 8.463,-9.596 10.557,-24.592 4.459,4.684 6.424,6.973 8.58,10.48 -4.2,8.288 -9.84,13.353 -16.215,13.923 z"
       id="path16" />
    <path
       d="m 118.27,143.154 c -2.125,-3.336 -3.414,-5.104 -8.58,-10.48 1.094,-7.824 1.707,-17.172 1.691,-27.531 a 230.39,230.39 0 0 0 -0.014,-2.041 c 5.082,-0.213 9.965,-0.527 14.541,-0.932 0.01,0.678 0.018,1.359 0.018,2.041 0.025,15.9 -2.879,29.51 -7.656,38.943 z"
       fill="#f6d43c"
       id="path17" />
    <path
       d="m 119.51,150.723 c 0.777,-2.441 0.711,-3.883 -1.223,-7.605 4.768,-9.432 7.664,-23.027 7.639,-38.906 0,-0.682 -0.008,-1.363 -0.018,-2.041 1.715,-0.152 3.387,-0.318 5.01,-0.496 2.268,2.676 5.094,6.004 7.559,9.521 -1.723,17.644 -8.862,31.861 -18.967,39.527 z"
       id="path18" />
    <path
       d="m 106.012,156.598 c -0.459,0.064 -1.07,0.154 -1.531,0.215 -1.445,0.174 -1.445,0.174 -2.191,0.242 l -0.234,0.021 c 6.385,-0.57 12.033,-5.65 16.232,-13.959 1.666,3.328 2.203,4.846 1.223,7.605 -4.07,3.09 -8.623,5.117 -13.5,5.875 h 0.001 z"
       fill="#f6d43c"
       id="path19" />
    <path
       d="m 112.561,155.221 -1.488,0.379 c -2.479,0.557 -2.479,0.557 -3.822,0.793 l -1.201,0.197 c 12.039,-1.877 22.121,-11.457 27.84,-25.682 1.58,4.211 2.078,6.182 1.018,10.195 -6.056,6.86 -13.719,11.792 -22.347,14.118 z"
       fill="#f6d43c"
       id="path20" />
    <path
       d="m 111.072,155.6 c -2.479,0.557 -2.479,0.557 -3.822,0.793 l -1.201,0.197 c 4.846,-0.756 9.379,-2.762 13.436,-5.816 -1.416,2.105 -2.381,3.035 -6.926,4.447 z m 23.834,-14.496 c 0.846,-3.529 0.816,-5.498 -1.018,-10.195 3.254,-8.098 5.096,-17.697 5.08,-28.236 -0.002,-0.68 -0.01,-1.361 -0.027,-2.041 3.898,-0.598 7.344,-1.279 10.215,-2.035 0.02,0.678 0.031,1.359 0.031,2.039 0.026,16.21 -5.404,30.411 -14.281,40.468 z"
       id="path21" />
    <path
       d="m 126.527,149.57 a 56.814,56.814 0 0 0 1.646,-0.953 l -0.627,0.373 z"
       fill="#f6d43c"
       id="path22" />
    <path
       d="m 156.123,98.059 c 0.035,22.096 -11.398,40.951 -28.547,50.916 l -0.029,0.016 0.627,-0.373 c 16.65,-10.029 27.695,-28.627 27.662,-50.396 0,-0.682 -0.014,-1.361 -0.035,-2.038 0.098,-0.055 0.193,-0.107 0.285,-0.162 0.023,0.675 0.035,1.355 0.037,2.037 z"
       id="path23" />
    <path
       d="m 133.816,130.902 c -2.18,-4.439 -3.656,-6.803 -8.643,-12.93 0.498,-4.344 0.76,-8.947 0.752,-13.762 0,-0.682 -0.008,-1.363 -0.018,-2.041 4.684,-0.416 9.037,-0.928 12.943,-1.525 0.018,0.68 0.025,1.361 0.025,2.041 0.02,10.532 -1.814,20.124 -5.059,28.217 z"
       fill="#f6d43c"
       id="path24" />
    <path
       d="m 125.166,118.021 c -3.566,-4.094 -5.355,-6.148 -13.797,-14.92 4.773,-0.24 8.545,-0.428 14.537,-0.963 0.012,0.689 0.02,1.379 0.02,2.072 0.008,4.834 -0.256,9.455 -0.76,13.812 z m -73.25,-17.613 a 1.43,1.43 0 0 0 -0.086,-0.016 c 0.082,-3.623 0.391,-7.201 0.914,-10.708 l 0.065,0.141 a 85.927,85.927 0 0 0 -0.893,10.583 z"
       id="path25" />
    <path
       d="M 52.808,89.826 52.743,89.685 C 56.519,64.299 71.336,42.732 89.883,36.12 l -0.079,0.035 C 71.305,42.823 56.542,64.425 52.808,89.826 Z"
       id="path26" />
    <path
       d="m 89.803,36.154 0.079,-0.035 a 36.034,36.034 0 0 1 6.574,-1.678 36.148,36.148 0 0 0 -6.653,1.713 z"
       id="path27" />
    <path
       d="m 59.448,54.278 c 2.154,-4.83 3.733,-7.242 8.309,-11.158 8.518,-5.114 18.297,-8.233 28.699,-8.679 -14.322,1.296 -27.337,8.735 -37.008,19.837 z"
       fill="#f6d43c"
       id="path28" />
    <path
       d="M 42.406,98.33 C 39.898,97.598 37.962,96.814 36.66,95.998 37.343,73.716 49.725,53.948 67.757,43.121 63.493,46.907 61.596,49.161 59.448,54.279 49.327,65.9 42.868,81.532 42.406,98.329 Z"
       id="path29" />
    <path
       d="m 95.669,103.414 a 370.647,370.647 0 0 1 -16.178,-0.363 c 0.082,-10.995 0.972,-21.715 2.463,-31.312 4.469,5.607 6.811,8.327 13.727,15.546 -0.013,5.243 -0.018,10.653 -0.012,16.129 z M 81.961,71.696 C 77.779,65.877 75.986,62.854 74.255,57.476 80,45.358 87.825,36.757 96.456,34.442 90.309,37.907 84.939,52.567 81.961,71.696 Z"
       fill="#f6d43c"
       id="path30" />
    <path
       d="m 79.492,103.051 a 299.71,299.71 0 0 1 -14.965,-1.029 c 0.257,-16.528 3.936,-32.324 9.729,-44.544 1.769,5.157 3.199,8.08 7.706,14.219 -1.494,9.607 -2.387,20.345 -2.469,31.353 v 0.001 z"
       id="path31" />
    <path
       d="M 64.526,102.021 A 241.275,241.275 0 0 1 59.564,101.49 C 57.501,98.326 54.933,94.391 52.808,89.826 55.449,71.851 63.617,55.779 74.72,45.554 c -1.48,4.082 -1.776,6.504 -0.487,11.968 -5.781,12.215 -9.449,27.993 -9.707,44.499 z"
       fill="#f6d43c"
       id="path32" />
    <path
       d="M 74.233,57.522 C 73.125,52.495 73.031,49.932 74.72,45.554 81.148,39.634 88.56,35.675 96.456,34.442 87.813,36.759 79.98,45.38 74.233,57.522 Z"
       id="path33" />
    <path
       d="M 58.575,68.975 C 57.674,62.991 57.671,59.87 59.458,54.269 69.127,43.172 82.139,35.737 96.456,34.442 93.043,35.014 92.428,35.117 89.882,36.12 76.676,40.829 65.36,53.121 58.575,68.975 Z"
       id="path34" />
    <path
       d="m 74.759,45.471 c 2.076,-3.595 3.44,-5.331 8.648,-8.065 a 50.85,50.85 0 0 1 13.049,-2.964 c -7.877,1.226 -15.274,5.154 -21.697,11.029 z m -22.93,54.922 c -3.692,-0.621 -6.857,-1.314 -9.423,-2.062 0.462,-16.805 6.924,-32.44 17.052,-44.061 -1.575,5.206 -1.944,8.212 -0.883,14.706 -4.059,9.483 -6.495,20.242 -6.746,31.417 z"
       fill="#f6d43c"
       id="path35" />
    <path
       d="m 67.815,43.086 c 4.519,-3.256 7.059,-4.798 14.102,-6.949 a 62.775,62.775 0 0 1 14.54,-1.695 c -10.38,0.444 -20.136,3.55 -28.642,8.644 z"
       id="path36" />
    <path
       d="M 36.66,95.998 C 35.367,95.187 34.702,94.342 34.729,93.482 L 34.833,91.34 C 36.61,64.419 56.091,42.277 81.916,36.136 76.088,37.985 72.841,39.359 67.814,43.085 49.75,53.905 37.343,73.693 36.66,96 Z"
       fill="#f6d43c"
       id="path37" />
    <path
       d="m 64.526,102.021 c -4.684,-0.451 -8.912,-0.996 -12.611,-1.613 0.249,-11.167 2.679,-21.918 6.724,-31.399 1.563,6.223 2.826,9.54 7.222,16.922 a 120.4,120.4 0 0 0 -1.335,16.09 z"
       id="path38" />
    <path
       d="M 64.525,102.051 A 120.1,120.1 0 0 1 65.87,85.878 c 3.781,5.626 6.104,8.946 13.622,17.173 -5.154,-0.258 -8.877,-0.447 -14.967,-1 z"
       fill="#f6d43c"
       id="path39" />
    <path
       d="m 83.407,37.406 c 3.434,-1.39 6.401,-2.588 13.049,-2.964 a 50.86,50.86 0 0 0 -13.049,2.964 z m 72.796,58.554 c 1.576,-0.917 2.314,-1.837 2.283,-2.742 0.846,25.746 -13.654,45.721 -30.805,55.686 l -0.062,0.037 0.648,-0.389 c 16.646,-10.025 27.688,-28.619 27.652,-50.391 0,-0.682 -0.012,-1.361 -0.035,-2.039 0.105,-0.057 0.209,-0.115 0.309,-0.173 0.023,0.677 0.035,1.356 0.035,2.038 z"
       id="path40" />
    <path
       d="m 125.756,56.251 h -0.002 0.002 a 0.833,0.833 0 0 1 0.049,-0.008 h -0.002 l 0.031,-0.005 c 0.6,-0.099 1.16,-0.196 1.703,-0.291 3.523,-0.651 11.203,-2.334 11.203,-4.664 0,0 3.42,3.126 5.715,7.392 0.275,0.463 0.51,0.946 0.689,1.436 0.199,0.488 0.342,0.941 0.414,1.348 0.018,0.025 0.035,0.052 0.051,0.079 0.012,0.197 0.012,0.369 0.004,0.531 0,0.068 -0.004,0.135 -0.012,0.198 -0.131,1.323 -0.947,1.351 -1.828,0.958 -0.094,-0.036 -0.186,-0.067 -0.283,-0.115 -3.168,-1.426 -4.201,-4.326 -4.816,-5.524 -1.607,0.508 -4.268,1.664 -6.477,2.093 -0.26,0.052 -0.729,0.162 -0.994,0.212 2.605,4.292 5.09,9.415 6.873,14.377 3.102,-3.188 7.955,2.726 8.189,8.438 0.137,3.354 -1.371,6.34 -4.434,5.264 2.453,4.545 1.666,11.209 -2.99,12.667 -0.775,-14.941 -3.309,-28.202 -13.15,-44.355 v -10e-4 z m 0.556,-11.457 c -0.014,-0.01 -0.027,-0.02 -0.043,-0.028 l 0.037,0.001 a 0.944,0.944 0 0 1 -0.037,-0.135 c 0.043,-0.059 0.105,-0.139 0.148,-0.196 a 5.71,5.71 0 0 1 0.201,-0.023 l -0.012,-0.016 c 0,0 0.447,-1.878 7.521,3.007 -12.023,-9.385 -24.219,-12.053 -31.445,-12.759 0.766,0.225 1.342,0.45 1.775,0.665 0.379,0.187 0.646,0.364 0.838,0.528 a 0.138,0.138 0 0 0 0.029,-0.006 c 0.877,0.098 1.672,0.25 2.381,0.426 h 0.002 c 0.256,0.089 0.516,0.183 0.775,0.28 l 0.098,0.037 a 29.725,29.725 0 0 1 1.481,0.604 c 0.066,0.029 0.133,0.055 0.197,0.084 0.268,0.12 0.539,0.242 0.812,0.371 l -0.002,0.011 c 2.172,1.062 3.93,2.254 3.941,3.167 -0.324,0.197 -0.424,0.258 -1.381,0 3.643,2.6 8.865,7.49 11.953,11.092 2.121,-0.401 5.283,-0.857 6.742,-1.345 -0.104,0.109 -5.374,-3.856 -6.011,-5.765 z"
       fill="#c23c40"
       id="path41" />
    <path
       d="m 138.705,51.328 a 66.065,66.065 0 0 0 -4.576,-3.924 c -2.863,-1.979 -4.641,-2.847 -5.742,-3.181 l 0.014,-0.014 c 0,0 -3.529,-1.135 -1.535,1.564 l 0.01,-0.01 c 1.531,2.03 5.361,4.888 5.451,4.797 -1.459,0.488 -4.621,0.944 -6.742,1.345 -3.088,-3.602 -8.311,-8.492 -11.953,-11.092 0.957,0.258 1.057,0.197 1.381,0 -0.012,-0.913 -1.77,-2.105 -3.941,-3.167 l 0.002,-0.011 c -0.273,-0.129 -0.545,-0.251 -0.812,-0.371 -0.064,-0.029 -0.131,-0.055 -0.197,-0.084 a 33.046,33.046 0 0 0 -1.481,-0.604 l -0.098,-0.037 c -0.26,-0.098 -0.52,-0.191 -0.775,-0.28 h -0.002 a 18.314,18.314 0 0 0 -2.381,-0.426 l -0.029,0.006 c 0.049,0.043 0.084,0.083 0.127,0.125 l -0.234,-0.113 c 0.045,-0.004 0.084,-0.01 0.107,-0.012 a 3.916,3.916 0 0 0 -0.838,-0.528 c -0.434,-0.215 -1.01,-0.44 -1.775,-0.665 a 47.833,47.833 0 0 0 -4.314,-0.237 c -0.826,-0.031 -1.491,-0.038 -1.633,0.013 -0.011,0.004 -0.013,0.01 -0.015,0.016 a 9.77,9.77 0 0 0 -0.397,0.019 l 0.274,0.088 c -0.155,-0.024 -0.317,-0.052 -0.468,-0.075 0.386,0.064 0.77,0.137 1.152,0.215 0.961,0.317 2.959,0.85 4.469,1.242 9.248,3.256 17.576,10.545 24.006,20.326 0.098,-0.015 0.193,-0.03 0.291,-0.047 5.725,-0.962 8.896,-2.021 11.168,-3.07 l 0.018,-0.008 c 1.637,-0.904 1.455,-1.793 1.455,-1.793 z"
       fill="#ffffff"
       id="path42" />
    <path
       d="m 125.691,56.278 c 0,0 0,0.001 0,0 -10.039,-14.795 -19.268,-19.216 -27.666,-21.385 0.217,0.063 0.434,0.13 0.652,0.202 -0.393,-0.105 -0.791,-0.21 -1.143,-0.301 a 18.166,18.166 0 0 1 -0.277,-0.092 c 0.254,0.062 0.512,0.127 0.768,0.192 A 19.392,19.392 0 0 0 97.132,34.66 5.881,5.881 0 0 1 96.887,34.575 c 0.024,0.013 0.052,0.028 0.085,0.048 -0.192,-0.043 -0.387,-0.087 -0.592,-0.128 1.798,1.986 4.314,2.826 4.923,3.007 -0.174,0.744 -0.045,2.23 2.551,4.109 0.402,0.292 0.791,0.521 1.166,0.706 4.002,2.092 4.885,0.464 5.074,-0.19 0.021,-0.017 0.047,-0.032 0.068,-0.052 1.223,0.902 3.6,2.815 6.229,5.791 1.514,1.818 2.941,3.404 4.016,4.992 -2.471,0.312 -5.75,0.604 -8.994,0.836 -0.186,-3.928 -3.018,-5.888 -4.801,-6.55 -3.9,-1.449 -5.184,3.142 -3.494,6.369 -3.088,-1.669 -6.739,-0.182 -7.252,4.695 12.196,-0.074 20.558,-0.614 29.825,-1.93 v -10e-4 z"
       fill="#c23c40"
       id="path43" />
    <path
       d="M 95.681,87.285 C 89.626,80.933 86.379,77.369 81.954,71.739 84.931,52.59 90.304,37.911 96.455,34.442 96.059,38.947 95.752,60.989 95.681,87.285 Z m -73.342,-37.34 0.354,0.175 c -0.599,1.254 -0.318,1.949 0.871,2.538 l 5.018,2.49 c 2.304,1.143 4.047,3.836 2.047,7.87 -1.761,3.549 -4.69,4.365 -7.346,3.046 l -5.426,-2.691 c -1.19,-0.589 -1.542,-0.348 -2.186,0.907 l -0.354,-0.175 2.369,-4.775 0.353,0.174 -0.083,0.168 c -0.507,1.021 -0.449,1.605 0.627,2.14 l 5.167,2.562 c 2.508,1.246 4.741,0.524 6.115,-2.246 1.042,-2.1 1.229,-4.669 -1.931,-6.236 l -4.33,-2.148 c -1.783,-0.884 -2.238,-0.763 -3.078,0.743 l -0.353,-0.175 z m 21.474,-6.152 -15.521,0.973 6.805,5.733 c 1.143,0.964 1.594,0.91 2.729,-0.438 l 0.302,0.252 -3.101,3.68 -0.302,-0.254 0.054,-0.063 c 0.829,-0.983 0.763,-1.58 0.034,-2.197 l -7.804,-6.575 c -0.562,0.15 -1.036,0.456 -1.519,0.998 l -0.303,-0.253 2.101,-2.491 14.083,-0.908 -6.313,-5.319 c -0.967,-0.817 -1.383,-0.677 -2.483,0.564 L 32.274,37.242 35.4,33.53 35.702,33.784 C 34.7,34.973 34.693,35.4 35.31,35.923 l 8.852,7.458 z m 7.549,-6.675 -3.878,3.219 -0.251,-0.302 c 0.949,-0.87 0.945,-1.298 0.057,-2.368 l -5.644,-6.798 c -0.716,-0.863 -1.217,-0.85 -2.15,-0.156 l -0.252,-0.303 3.878,-3.22 0.252,0.303 c -1.005,0.835 -1.171,1.35 -0.283,2.419 l 5.616,6.766 c 0.783,0.943 1.303,1.05 2.405,0.135 z m 7.64,-4.755 -9.558,-7.406 c -1.108,-0.866 -1.48,-1.008 -2.572,-0.369 l -0.199,-0.339 4.921,-2.885 0.199,0.34 c -1.625,1.001 -1.799,1.606 -0.977,2.23 l 7.919,6.13 -1.504,-9.048 C 57.134,20.4 57.031,19.979 56.885,19.727 56.571,19.19 55.996,19.238 54.78,19.951 l -0.198,-0.339 4.149,-2.433 0.201,0.34 C 58,18.064 57.77,18.777 57.99,20.138 l 1.904,11.699 z M 74.239,20.198 73.866,20.326 C 73.228,18.99 72.802,18.959 71.998,19.237 l -3.314,1.143 1.441,4.178 c 0.31,0.901 0.704,0.962 1.431,0.712 l 3.02,-1.042 c 1.373,-0.473 1.602,-1.145 1.509,-3 l 0.354,-0.121 0.694,3.029 -10.412,3.591 -0.13,-0.373 0.55,-0.188 c 1.567,-0.541 1.694,-1.068 1.289,-2.244 L 65.576,16.649 C 65.197,15.55 64.781,15.167 63.467,15.62 l -0.432,0.149 -0.129,-0.373 9.413,-3.245 1.096,2.671 -0.353,0.123 c -0.83,-1.58 -1.441,-1.764 -2.147,-1.521 l -4.138,1.427 1.664,4.825 3.51,-1.21 c 0.707,-0.243 0.925,-0.693 0.63,-1.864 l 0.373,-0.128 z m 7.868,-10.026 c 0.365,-0.086 0.634,-0.117 1.025,-0.164 3.172,-0.376 4.213,1.003 4.441,2.918 0.294,2.47 -1.094,3.619 -3.38,3.89 -0.475,0.057 -0.78,0.113 -1.282,0.111 z m 0.85,7.148 c 0.333,-0.019 0.603,-0.03 1.056,-0.084 0.556,-0.066 0.884,-0.126 1.396,-0.208 0.534,0.271 1.325,0.782 2.34,1.581 l 1.52,1.198 c 2.051,1.615 3.072,2.287 6.657,1.694 l -0.044,-0.372 c -1.598,0.085 -2.945,-0.527 -4.305,-1.596 l -1.82,-1.434 C 88.674,17.245 87.988,16.742 87.153,16.235 88.783,15.54 89.68,14.116 89.496,12.572 89.246,10.471 87.35,9.109 83.54,9.563 a 43.8,43.8 0 0 0 -2.588,0.37 c -0.839,0.142 -2.085,0.374 -2.581,0.432 l 0.047,0.392 0.454,-0.053 c 1.194,-0.142 1.588,0.187 1.74,1.463 l 1.031,8.672 c 0.166,1.379 -0.229,1.761 -1.444,1.905 l -0.351,0.042 0.047,0.392 5.829,-0.694 -0.047,-0.393 -0.473,0.057 C 84.05,22.285 83.519,22.036 83.372,20.8 Z m 15.939,1.189 c 0.289,1.875 1.654,3.063 3.268,3.189 1.385,0.109 2.916,-0.584 3.043,-2.217 0.234,-2.979 -6.332,-4.406 -6.051,-8.026 0.135,-1.716 1.805,-2.876 3.914,-2.71 1.736,0.136 2.051,0.68 2.773,0.736 0.166,0.014 0.25,-0.021 0.387,-0.176 l 0.332,0.025 0.146,2.653 -0.352,-0.027 c -0.463,-1.534 -1.711,-2.588 -3.139,-2.7 -1.365,-0.106 -2.377,0.605 -2.469,1.762 -0.229,2.938 6.348,4.242 6.051,8.046 -0.158,2.026 -2.076,3.396 -4.496,3.207 -1.135,-0.089 -2.541,-0.761 -2.83,-0.783 a 0.499,0.499 0 0 0 -0.43,0.195 l -0.354,-0.026 -0.188,-3.178 z m 15.95,5.441 -4.926,-1.072 0.084,-0.385 c 1.271,0.212 1.604,-0.054 1.9,-1.413 l 1.881,-8.633 c 0.238,-1.095 -0.08,-1.482 -1.203,-1.791 l 0.086,-0.385 4.924,1.072 -0.084,0.386 c -1.277,-0.278 -1.785,-0.092 -2.082,1.267 l -1.869,8.593 c -0.264,1.197 -0.025,1.672 1.373,1.977 z m 10.455,1.488 c -0.412,1.041 -0.211,1.546 0.967,2.012 l 0.713,0.283 -0.146,0.367 -6.074,-2.41 0.146,-0.366 0.713,0.283 c 1.176,0.465 1.668,0.238 2.082,-0.804 l 3.777,-9.525 -3.355,-1.331 c -0.773,-0.306 -1.295,0 -2.258,1.582 l -0.346,-0.137 1.545,-3.003 0.367,0.146 c -0.025,0.125 0.021,0.232 0.121,0.316 0.1,0.085 0.227,0.158 0.363,0.21 l 9.273,3.677 c 0.27,0.107 0.582,0.165 0.713,-0.052 l 0.365,0.146 -0.928,3.245 -0.35,-0.137 c 0.385,-1.812 0.213,-2.392 -0.557,-2.698 l -3.355,-1.33 z m 21.119,1.352 c 1.186,-0.58 1.055,-1.092 -0.051,-1.829 l 0.219,-0.328 3.898,2.604 -0.219,0.329 c -1.23,-0.698 -2.043,-0.567 -3.066,-0.079 l -6.101,2.933 -1.729,2.587 c -0.611,0.914 -0.525,1.495 0.527,2.198 l 0.223,0.15 -0.219,0.326 -4.74,-3.168 0.217,-0.327 0.328,0.219 c 1.07,0.715 1.645,0.524 2.209,-0.32 l 1.625,-2.432 0.135,-6.847 c 0.043,-1.892 -0.193,-2.398 -1.291,-3.183 l 0.219,-0.327 4.588,3.065 -0.219,0.327 c -1.348,-0.899 -1.652,-0.629 -1.664,0.51 l -0.086,6.104 z m 17.135,24.701 c -2.342,1.788 -5.697,2.312 -7.748,-0.376 -2.023,-2.655 -1.445,-6.411 1.641,-8.764 1.979,-1.509 5.562,-2.417 7.777,0.486 2.074,2.721 1.398,6.315 -1.67,8.654 z m 1.726,1.136 c 2.969,-2.265 3.059,-6.559 0.682,-9.675 -2.68,-3.514 -6.928,-4.263 -10.211,-1.761 -3.084,2.354 -3.086,6.659 -0.621,9.891 2.439,3.201 6.82,4.086 10.15,1.545 z m 4.352,12.963 -0.152,-0.318 c 1.068,-0.557 1.217,-1.109 0.789,-2.009 l -1.652,-3.462 -4.102,1.956 c -1.047,0.5 -1.332,0.913 -0.664,2.316 l -0.355,0.169 -2.17,-4.549 0.355,-0.169 c 0.629,1.125 0.971,1.215 2.486,0.492 l 7.34,-3.503 c 1.197,-0.571 1.697,-0.923 1.09,-2.242 l 0.355,-0.17 4.002,8.388 -2.209,1.053 -0.152,-0.318 c 1.076,-0.536 1.348,-1.125 0.793,-2.286 l -1.697,-3.556 -4.398,2.098 1.77,3.707 c 0.33,0.692 0.883,0.843 1.715,0.514 l 0.152,0.318 z m -145.201,81.185 7.465,-13.768 -0.03,-0.041 -10.075,6.424 c -1.141,0.729 -0.784,1.715 -0.127,2.711 l -0.407,0.297 -3.237,-4.463 0.406,-0.295 c 1.138,1.566 1.621,1.51 3.65,0.201 l 8.719,-5.539 c 1.478,-0.941 1.833,-1.266 0.955,-2.656 l 0.385,-0.283 2.35,3.24 -7.062,13.014 14.547,-2.693 2.289,3.152 -0.386,0.279 c -0.849,-0.988 -1.166,-1.379 -1.863,-0.807 l -9.221,7.736 c -1.88,1.561 -1.755,1.732 -0.619,3.299 l -0.408,0.295 -4,-5.514 0.407,-0.297 c 0.732,1.01 1.726,1.795 2.801,0.883 l 9.159,-7.594 -0.031,-0.043 -15.309,2.953 z m 26.257,14.34 -3.693,-2.717 5.475,-3.639 z m -0.327,1.207 -1.428,4.939 c -0.072,0.275 -0.158,0.705 -0.409,1.047 -0.439,0.598 -0.982,0.396 -2.199,-0.498 l -0.556,-0.408 -0.297,0.404 5.871,4.32 0.3,-0.408 c -1.069,-0.785 -1.359,-1.328 -0.956,-2.773 l 4.253,-15.131 -1.857,-1.367 -0.153,0.611 -11.689,7.754 c -2.05,1.355 -2.458,1.416 -3.861,0.418 l -0.299,0.404 4.933,3.629 0.297,-0.406 -0.341,-0.252 c -1.174,-0.861 -1.573,-1.484 -1.148,-2.062 0.22,-0.297 0.968,-0.734 1.417,-1.029 l 3.703,-2.441 z m 17.004,-0.375 c 0.467,0.111 0.792,0.225 1.267,0.393 3.847,1.365 4.256,3.537 3.433,5.859 -1.063,2.996 -3.303,3.523 -6.076,2.541 -0.575,-0.203 -0.958,-0.312 -1.531,-0.6 z m -3.075,8.668 c 0.39,0.168 0.706,0.307 1.256,0.502 0.674,0.24 1.084,0.355 1.716,0.551 0.458,0.613 1.075,1.648 1.785,3.139 l 1.064,2.232 c 1.435,3.012 2.222,4.359 6.665,5.711 l 0.159,-0.451 c -1.879,-0.807 -3.075,-2.271 -4.025,-4.268 l -1.275,-2.674 c -0.757,-1.59 -1.258,-2.555 -1.925,-3.607 2.261,0.127 4.094,-0.994 4.757,-2.867 0.906,-2.549 -0.495,-5.184 -5.116,-6.822 -1.624,-0.574 -2.132,-0.729 -3.174,-1.041 -1.042,-0.312 -2.601,-0.754 -3.201,-0.967 l -0.168,0.475 0.55,0.195 c 1.448,0.514 1.714,1.113 1.165,2.662 l -3.731,10.518 c -0.594,1.674 -1.26,1.887 -2.734,1.363 l -0.423,-0.15 -0.169,0.475 7.069,2.508 0.169,-0.475 -0.575,-0.203 c -1.398,-0.498 -1.865,-1.084 -1.333,-2.582 z m 30.068,-0.558 c 0.97,-1.381 0.506,-1.873 -1.185,-2.018 l 0.043,-0.502 5.968,0.51 -0.043,0.502 c -1.807,-0.021 -2.633,0.627 -3.479,1.805 l -5.017,7.047 -0.337,3.961 c -0.12,1.4 0.334,1.998 1.947,2.135 l 0.342,0.029 -0.042,0.502 -7.262,-0.619 0.042,-0.502 0.502,0.043 c 1.637,0.139 2.164,-0.428 2.274,-1.721 l 0.317,-3.725 -4.075,-7.742 c -1.12,-2.143 -1.697,-2.564 -3.408,-2.764 l 0.043,-0.5 7.024,0.598 -0.043,0.5 c -2.06,-0.174 -2.234,0.316 -1.545,1.598 l 3.669,6.883 z m 22.03,11.908 -11.682,1.973 -0.084,-0.496 0.861,-0.146 c 1.201,-0.203 1.58,-0.67 1.355,-2.002 l -1.955,-11.578 c -0.234,-1.385 -0.75,-1.889 -2.395,-1.611 l -0.367,0.062 -0.084,-0.496 7.709,-1.303 0.084,0.496 -0.967,0.164 c -1.699,0.287 -2.111,0.545 -1.838,2.164 l 2.035,12.049 c 0.119,0.705 0.451,0.918 1.209,0.789 l 3.84,-0.646 c 1.543,-0.262 1.912,-0.941 3.174,-3.494 l 0.471,-0.08 z m 12.65,-13.242 -4.232,1.768 -0.301,-6.566 z m 0.865,0.902 3.498,3.768 c 0.201,0.203 0.523,0.498 0.688,0.889 0.285,0.686 -0.166,1.047 -1.561,1.629 l -0.635,0.266 0.193,0.465 6.725,-2.809 -0.193,-0.465 c -1.223,0.51 -1.838,0.48 -2.869,-0.611 l -10.781,-11.438 -2.129,0.889 0.445,0.445 0.627,14.014 c 0.105,2.455 -0.049,2.836 -1.629,3.525 l 0.195,0.465 5.646,-2.361 -0.191,-0.463 -0.393,0.162 c -1.346,0.562 -2.084,0.584 -2.359,-0.076 -0.143,-0.344 -0.133,-1.209 -0.154,-1.746 l -0.186,-4.432 z m 28.672,-10.273 -19.734,-2.328 7.242,8.766 c 1.215,1.471 1.795,1.506 3.531,0.072 l 0.322,0.387 -4.742,3.916 -0.318,-0.387 0.08,-0.068 c 1.268,-1.045 1.322,-1.812 0.545,-2.752 l -8.307,-10.053 c -0.738,0.062 -1.406,0.336 -2.137,0.906 l -0.32,-0.387 3.207,-2.652 17.912,2.08 -6.719,-8.131 c -1.031,-1.246 -1.584,-1.168 -3.252,0.143 l -0.322,-0.387 4.783,-3.951 0.318,0.387 c -1.531,1.268 -1.639,1.803 -0.98,2.6 l 9.422,11.4 z m -3.877,-20.403 c 0.15,-0.281 0.473,-0.926 1.062,-1.838 2.014,-3.117 3.814,-4.193 5.5,-4.557 2.162,-0.465 4.289,0.248 5.936,1.312 2.293,1.482 3.346,3.613 3.615,4.955 0.488,2.273 0.105,3.793 -1.824,6.775 -1.135,1.758 -1.49,1.623 -2.402,1.033 z m 10.291,9.272 c 1.291,0.834 1.266,1.607 0.49,2.809 l -0.246,0.377 0.424,0.273 4.604,-7.123 c 3.639,-5.631 1.295,-10.84 -2.068,-13.012 -3.672,-2.373 -8.338,-1.699 -12.137,4.178 a 136.17,136.17 0 0 0 -2.35,3.783 233.905,233.905 0 0 0 -1.895,3.227 l 0.424,0.271 0.287,-0.443 c 0.848,-1.314 1.449,-1.463 2.895,-0.527 z M 11.588,90.438 v 11.355 c 0,0.588 0.117,0.744 0.725,0.744 h 1.097 v 0.359 H 8.49 v -0.359 h 1.057 c 0.628,0 0.745,-0.176 0.745,-0.764 V 92.002 C 9.667,92.551 8.568,93.276 7.844,93.608 L 7.687,93.334 c 1.136,-0.764 2.76,-2.232 3.224,-2.897 h 0.677 z m 11.331,9.689 c 0,1.527 -1.121,2.701 -2.594,2.701 -1.494,0 -2.595,-1.232 -2.595,-2.898 0,-1.271 0.668,-2.25 2.005,-2.975 2.28,1.037 3.184,1.859 3.184,3.172 z m 0.857,-6.869 c 0,-1.565 -1.573,-2.818 -3.536,-2.818 -1.935,0 -3.555,1.449 -3.555,3.171 0,1.329 0.841,2.327 2.673,3.149 -1.921,0.764 -2.853,1.84 -2.853,3.211 0,1.781 1.676,3.211 3.798,3.211 2.183,0 3.868,-1.566 3.868,-3.604 0,-1.508 -0.88,-2.545 -2.943,-3.463 1.722,-0.686 2.548,-1.605 2.548,-2.857 z M 22.594,93.24 c 0,1.113 -0.544,2.015 -1.636,2.698 -2.536,-1.076 -3.12,-1.857 -3.12,-2.935 0,-1.23 1.052,-2.209 2.398,-2.209 1.366,0 2.358,1.036 2.358,2.446 z m 146.103,-1.399 h 4.633 c 0.354,0 0.471,-0.079 0.568,-0.251 h 0.373 l -0.217,1.512 h -4.947 l -0.158,3.509 c 0.607,-0.33 1.311,-0.484 2.113,-0.484 2.189,0 4.012,1.828 4.012,4.035 0,2.373 -1.979,4.176 -4.6,4.176 -1.564,0 -2.855,-0.547 -2.855,-1.232 0,-0.336 0.295,-0.611 0.646,-0.611 1.057,0 1.428,1.375 2.66,1.375 1.447,0 2.68,-1.512 2.68,-3.295 0,-1.805 -1.232,-3.15 -2.914,-3.15 -0.725,0 -1.486,0.285 -2.072,0.783 l -0.195,-0.135 z m 14.903,8.72 c 0,2.217 -0.941,3.453 -2.311,3.453 -1.236,0 -2.666,-1.08 -2.666,-4.375 0,-0.668 0.039,-0.943 0.1,-1.217 1.193,-0.963 2.074,-1.178 2.586,-1.178 1.312,0 2.291,1.215 2.291,3.317 z m 0.117,-8.971 c -4.094,1.154 -6.562,4.031 -6.562,7.656 0,3 1.686,5.092 4.094,5.092 2.098,0 3.822,-1.797 3.822,-3.955 0,-2 -1.549,-3.607 -3.469,-3.607 -0.961,0 -1.723,0.311 -2.781,1.135 0.43,-2.859 2.057,-4.778 5.111,-6.033 z"
       id="path44" />
  </g>
</svg>
