<?xml version="1.0" encoding="UTF-8" standalone="no"?>
<!-- Created with Inkscape (http://www.inkscape.org/) -->

<svg
   width="512"
   height="512"
   viewBox="0 0 512 512"
   version="1.1"
   id="svg1"
   inkscape:version="1.4 (86a8ad7, 2024-10-11)"
   sodipodi:docname="mtbIconSmall.svg"
   xmlns:inkscape="http://www.inkscape.org/namespaces/inkscape"
   xmlns:sodipodi="http://sodipodi.sourceforge.net/DTD/sodipodi-0.dtd"
   xmlns="http://www.w3.org/2000/svg"
   xmlns:svg="http://www.w3.org/2000/svg">
  <sodipodi:namedview
     id="namedview1"
     pagecolor="#ffffff"
     bordercolor="#000000"
     borderopacity="0.25"
     inkscape:showpageshadow="false"
     inkscape:pageopacity="0.0"
     inkscape:pagecheckerboard="0"
     inkscape:deskcolor="#d1d1d1"
     inkscape:document-units="px"
     inkscape:zoom="2.2792969"
     inkscape:cx="256.21936"
     inkscape:cy="256.21936"
     inkscape:window-width="1147"
     inkscape:window-height="1186"
     inkscape:window-x="893"
     inkscape:window-y="414"
     inkscape:window-maximized="0"
     inkscape:current-layer="layer1"
     showborder="false"
     borderlayer="false" />
  <defs
     id="defs1">
    <rect
       x="114.78518"
       y="196.68596"
       width="457.62294"
       height="510.57105"
       id="rect5" />
  </defs>
  <g
     inkscape:label="Layer 1"
     inkscape:groupmode="layer"
     id="layer1">
    <circle
       style="display:inline;fill:#282828;fill-opacity:1"
       id="path21"
       cx="256"
       cy="256"
       r="256"
       inkscape:label="circle-background" />
    <path
       style="display:none;fill:#aa0000;fill-opacity:1"
       id="circle1"
       inkscape:label="guide-arc"
       sodipodi:type="arc"
       sodipodi:cx="256"
       sodipodi:cy="256"
       sodipodi:rx="256"
       sodipodi:ry="256"
       sodipodi:start="2.443461"
       sodipodi:end="2.9146999"
       sodipodi:arc-type="slice"
       d="M 59.892623,420.55363 A 256,256 0 0 1 6.5612634,313.58747 L 256,256 Z" />
    <path
       style="font-size:405.357px;font-family:AllisDaedric;-inkscape-font-specification:AllisDaedric;white-space:pre;fill:#d5a149"
       d="m 127.35122,252.62481 c -8.10714,8.5125 -6.08035,178.76244 2.8375,204.29993 4.86429,12.97142 10.53928,23.5107 12.97143,23.5107 2.83749,0 5.26964,-25.53749 5.26964,-56.34462 0,-42.96784 2.8375,-58.77676 12.56606,-68.50533 l 12.97143,-12.56607 37.29284,34.45535 c 21.07856,19.45713 42.96784,35.26606 49.85891,35.26606 5.675,0 22.29464,-14.99821 35.26606,-33.64464 13.37678,-19.05177 27.56428,-34.04998 32.83392,-34.04998 12.97142,0 18.24106,37.6982 18.24106,134.57852 -0.81071,89.98925 -9.72857,131.33567 -35.26606,159.71066 l -13.78214,15.80892 16.61964,-8.10714 c 59.18212,-31.61785 84.71961,-139.03745 73.36962,-311.71953 l -5.26964,-87.96247 h -47.02141 -47.42677 l 10.53928,22.69999 c 13.37678,27.15892 4.45893,67.69462 -22.29464,101.33925 l -18.24106,21.88928 -12.56607,-10.53928 c -17.43035,-14.1875 -40.5357,-66.07319 -41.34641,-89.5839 0,-10.13392 5.26964,-24.72678 12.56607,-32.0232 l 12.16071,-13.78214 h -49.0482 c -25.94285,0 -50.66962,2.43214 -53.10177,5.26964 z"
       id="text4"
       inkscape:label="m"
       transform="matrix(0.98810495,0,0,0.98546651,2.4084744,-188.69151)"
       aria-label="M" />
    <g
       id="g15"
       inkscape:label="lines"
       transform="translate(207.68826,244.32379)">
      <rect
         style="fill:#d5a149;fill-opacity:1;stroke-width:1.28918;fill-rule:nonzero"
         id="rect8"
         width="199.439"
         height="15"
         x="-151.12726"
         y="61.763702"
         rx="8.3099585"
         ry="5" />
      <rect
         style="fill:#d5a149;fill-opacity:1;fill-rule:nonzero"
         id="rect7"
         width="179.103"
         height="15"
         x="-130.79173"
         y="115.24678"
         rx="5"
         ry="5" />
      <rect
         style="fill:#d5a149;fill-opacity:1;stroke-width:1.10347;fill-rule:nonzero"
         id="rect6"
         width="146.108"
         height="15"
         x="-97.795898"
         y="168.72986"
         rx="6.0878348"
         ry="5" />
    </g>
  </g>
</svg>
