<?xml version="1.0" encoding="UTF-8" standalone="no"?>
<!-- Created with Inkscape (http://www.inkscape.org/) -->

<svg
   width="512"
   height="332"
   viewBox="0 0 512 332"
   version="1.1"
   id="svg1"
   inkscape:version="1.4 (86a8ad7, 2024-10-11)"
   sodipodi:docname="mtbIcon.svg"
   xmlns:inkscape="http://www.inkscape.org/namespaces/inkscape"
   xmlns:sodipodi="http://sodipodi.sourceforge.net/DTD/sodipodi-0.dtd"
   xmlns="http://www.w3.org/2000/svg"
   xmlns:svg="http://www.w3.org/2000/svg">
  <sodipodi:namedview
     id="namedview1"
     pagecolor="#ffffff"
     bordercolor="#000000"
     borderopacity="0.25"
     inkscape:showpageshadow="2"
     inkscape:pageopacity="0.0"
     inkscape:pagecheckerboard="0"
     inkscape:deskcolor="#d1d1d1"
     inkscape:document-units="px"
     inkscape:zoom="1.6117063"
     inkscape:cx="146.73889"
     inkscape:cy="152.63327"
     inkscape:window-width="1147"
     inkscape:window-height="1186"
     inkscape:window-x="2308"
     inkscape:window-y="146"
     inkscape:window-maximized="0"
     inkscape:current-layer="layer1" />
  <defs
     id="defs1">
    <rect
       x="114.78518"
       y="196.68596"
       width="428.73816"
       height="387.16733"
       id="rect5" />
  </defs>
  <g
     inkscape:label="Layer 1"
     inkscape:groupmode="layer"
     id="layer1"
     transform="translate(0,-112)">
    <g
       id="g3"
       inkscape:label="monitor">
      <rect
         style="fill:#0b0b0b;fill-opacity:1;stroke-width:0.930954"
         id="rect3"
         width="342"
         height="24"
         x="85"
         y="420"
         rx="11.565572"
         ry="7.4935789"
         inkscape:label="monitor-base" />
      <rect
         style="fill:#0b0b0b;fill-opacity:1;stroke-width:0.715761"
         id="rect2"
         width="170"
         height="22"
         x="171"
         y="399"
         inkscape:label="monitor-neck" />
      <rect
         style="fill:#0b0b0b;fill-opacity:1"
         id="rect1"
         width="512"
         height="288"
         x="0"
         y="112"
         rx="10"
         ry="10"
         inkscape:label="monitor-screen" />
    </g>
    <rect
       style="fill:#282828;fill-opacity:1"
       id="rect4"
       width="502"
       height="278"
       x="5"
       y="117"
       rx="10"
       ry="10"
       inkscape:label="screen" />
    <path
       style="font-size:232px;font-family:AllisDaedric;-inkscape-font-specification:AllisDaedric;white-space:pre;fill:#d5a149"
       d="m 121.97716,228.70155 c -4.64,4.872 -3.48,102.312 1.624,116.928 2.784,7.424 6.032,13.456 7.424,13.456 1.624,0 3.016,-14.616 3.016,-32.248 0,-24.592 1.624,-33.64 7.192,-39.208 l 7.424,-7.192 21.344,19.72 c 12.064,11.136 24.592,20.184 28.536,20.184 3.248,0 12.76,-8.584 20.184,-19.256 7.656,-10.904 15.776,-19.488 18.792,-19.488 7.424,0 10.44,21.576 10.44,77.024 -0.464,51.504 -5.568,75.168 -20.184,91.408 l -7.888,9.048 9.512,-4.64 c 33.872,-18.096 48.488,-79.576 41.992,-178.408 l -3.016,-50.344 h -26.912 -27.144 l 6.032,12.992 c 7.656,15.544 2.552,38.744 -12.76,58 l -10.44,12.528 -7.192,-6.032 c -9.976,-8.12 -23.2,-37.816 -23.664,-51.272 0,-5.8 3.016,-14.152 7.192,-18.328 l 6.96,-7.888 h -28.072 c -14.848,0 -29,1.392 -30.392,3.016 z"
       id="text4"
       inkscape:label="m"
       transform="matrix(0.98810495,0,0,0.98546651,62.354992,-81.405548)"
       aria-label="M" />
    <g
       id="g15"
       inkscape:label="lines"
       transform="translate(0,18.5)">
      <rect
         style="fill:#d5a149;fill-opacity:1"
         id="rect6"
         width="120"
         height="15"
         x="30"
         y="150"
         rx="5"
         ry="5" />
      <rect
         style="fill:#d5a149;fill-opacity:1"
         id="rect7"
         width="120"
         height="15"
         x="30"
         y="190"
         rx="5"
         ry="5" />
      <rect
         style="fill:#d5a149;fill-opacity:1"
         id="rect8"
         width="120"
         height="15"
         x="30"
         y="230"
         rx="5"
         ry="5" />
      <rect
         style="fill:#d5a149;fill-opacity:1"
         id="rect15"
         width="120"
         height="15"
         x="362"
         y="150"
         rx="5"
         ry="5" />
      <rect
         style="fill:#d5a149;fill-opacity:1"
         id="rect16"
         width="120"
         height="15"
         x="362"
         y="190"
         rx="5"
         ry="5" />
      <rect
         style="fill:#d5a149;fill-opacity:1"
         id="rect17"
         width="120"
         height="15"
         x="362"
         y="230"
         rx="5"
         ry="5" />
      <rect
         style="fill:#d5a149;fill-opacity:1"
         id="rect18"
         width="120"
         height="15"
         x="362"
         y="270"
         rx="5"
         ry="5" />
      <rect
         style="fill:#d5a149;fill-opacity:1"
         id="rect19"
         width="120"
         height="15"
         x="362"
         y="310"
         rx="5"
         ry="5" />
      <rect
         style="fill:#d5a149;fill-opacity:1;stroke-width:1.31022"
         id="rect20"
         width="206"
         height="15"
         x="30"
         y="270"
         rx="8.583333"
         ry="5" />
      <rect
         style="fill:#d5a149;fill-opacity:1;stroke-width:1.31022"
         id="rect21"
         width="206"
         height="15"
         x="30"
         y="310"
         rx="8.583333"
         ry="5" />
    </g>
  </g>
</svg>
